<svg xmlns="http://www.w3.org/2000/svg" viewBox="0 0 164.35 180.35"><title>cal</title><g id="Layer_2" data-name="Layer 2"><g id="Layer_1-2" data-name="Layer 1"><path d="M24.55,15.74V.08H41.06V15.53h82.08V0h16.4V16c3.06,0,5.52-.07,8,0,9.71.32,16.75,7.2,16.77,16.84q.14,65.21,0,130.41c0,10.56-7.14,17-18.51,17.08-21.49.09-43,0-64.47,0q-30.73,0-61.47,0c-13.78,0-19.8-6-19.81-19.74Q0,98.89,0,37.18C0,21.53,5.24,16.23,20.85,16,21.83,15.94,22.81,15.85,24.55,15.74ZM16.72,163.52H147.25v-106H16.72Z"/></g></g></svg>