<svg xmlns="http://www.w3.org/2000/svg" viewBox="0 0 164.16 164.32"><title>emoji</title><g id="Layer_2" data-name="Layer 2"><g id="Layer_1-2" data-name="Layer 1"><path d="M164.16,82.53c0,45.3-37,81.95-82.56,81.79C36.49,164.16,0,127.32,0,82.05a82.08,82.08,0,1,1,164.16.48Zm-82-65.89c-36.59.17-65.89,29.45-65.67,65.63a65.7,65.7,0,1,0,131.4-.45C147.8,46,118.08,16.48,82.13,16.64Z"/><path d="M41,98.83h82.22c-3,14.78-22.17,28.19-40.44,28.45C64,127.56,44.76,114.68,41,98.83Z"/><path d="M53.44,73.94A12.32,12.32,0,0,1,41,61.69,12.11,12.11,0,0,1,53.36,49.44a12.35,12.35,0,0,1,12.5,12.17A12.53,12.53,0,0,1,53.44,73.94Z"/><path d="M110.87,49.45a11.9,11.9,0,0,1,12.28,12.22,12.22,12.22,0,0,1-12.29,12.26A11.88,11.88,0,0,1,98.64,61.66,11.77,11.77,0,0,1,110.87,49.45Z"/></g></g></svg>