<svg xmlns="http://www.w3.org/2000/svg" viewBox="0 0 143.66 143.88"><title>search</title><g id="Layer_2" data-name="Layer 2"><g id="Layer_1-2" data-name="Layer 1"><path d="M93.92,88.43c1.38.84,2.16,1.71,2.74,1.6,6-1.17,9,3.25,12.48,6.7C120.6,108.09,132,119.47,143.66,131l-13.48,12.87c-3.76-4.18-7.67-8.86-11.92-13.21q-11.51-11.77-23.38-23.21c-2.74-2.64-5.08-5.12-4.57-9.35.15-1.21-1-2.56-1.53-3.92C56.89,112.72,29.39,109.8,11.27,86.3A53.43,53.43,0,0,1,85.39,10.66a52.34,52.34,0,0,1,21.16,37C108.27,62.75,103.7,76.23,93.92,88.43ZM16.73,53.19c0,20.78,15.83,36.94,36.32,37a36.87,36.87,0,0,0,37.38-36.8c.14-20.35-16.58-36.79-37.38-36.73A36.14,36.14,0,0,0,16.73,53.19Z"/></g></g></svg>